<svg width="20" height="20" viewBox="0 0 20 20" fill="none" xmlns="http://www.w3.org/2000/svg">
<path d="M12.9499 9.40832L8.23328 4.69999C8.15581 4.62188 8.06364 4.55989 7.96209 4.51758C7.86054 4.47527 7.75162 4.45349 7.64161 4.45349C7.5316 4.45349 7.42268 4.47527 7.32113 4.51758C7.21958 4.55989 7.12741 4.62188 7.04994 4.69999C6.89474 4.85613 6.80762 5.06733 6.80762 5.28749C6.80762 5.50764 6.89474 5.71885 7.04994 5.87499L11.1749 10.0417L7.04994 14.1667C6.89474 14.3228 6.80762 14.534 6.80762 14.7542C6.80762 14.9743 6.89474 15.1855 7.04994 15.3417C7.12712 15.4204 7.21916 15.483 7.32072 15.526C7.42229 15.5689 7.53135 15.5912 7.64161 15.5917C7.75187 15.5912 7.86094 15.5689 7.9625 15.526C8.06406 15.483 8.1561 15.4204 8.23328 15.3417L12.9499 10.6333C13.0345 10.5553 13.102 10.4606 13.1482 10.3552C13.1944 10.2497 13.2182 10.1359 13.2182 10.0208C13.2182 9.90574 13.1944 9.7919 13.1482 9.68648C13.102 9.58107 13.0345 9.48636 12.9499 9.40832V9.40832Z" fill="#B69D75"/>
</svg>
