<svg width="262" height="257" viewBox="0 0 262 257" fill="none" xmlns="http://www.w3.org/2000/svg">
<path fill-rule="evenodd" clip-rule="evenodd" d="M91.3419 187.717L97.9148 191.598C97.7726 193.758 99.2303 192.473 97.3445 196.509L89.3691 191.241L91.3419 187.717ZM81.1013 181.333C85.8703 184.248 87.4683 184.625 86.1729 187.555C85.7771 187.555 85.6078 189.114 82.224 185.257C79.688 182.362 81.1567 182.42 81.1013 181.333ZM101.758 193.882C102.819 191.885 102.619 189.264 109.56 192.924C109.826 194.831 110.491 197.597 110.247 199.298C107.532 199.735 104.378 199.608 101.794 197.985C101.743 195.458 102.551 197.348 101.758 193.882ZM115.406 193.188C117.408 191.866 115.72 192.688 118.088 192.351C121.661 191.852 122.025 191.855 123.486 196.895C122.924 197.878 123.277 197.93 122.158 198.72L121.327 199.084C121.203 199.127 121.021 199.144 120.892 199.176L119.143 199.464C117.126 199.88 115.049 199.727 114.857 197.113L115.406 193.188ZM128.428 197.067C127.41 195.772 126.768 192.908 127.014 191.186C127.989 190.745 127.705 190.867 128.752 190.516C129.407 190.292 129.568 190.257 130.339 189.983L134.24 189.09L136.02 193.693C136.057 193.79 136.136 193.994 136.182 194.15C134.605 195.614 132.554 196.361 130.522 196.919C129.262 197.262 129.738 197.351 128.428 197.067ZM140.123 192.338C138.187 187.261 139.872 186.671 140.482 186.299C142.008 185.364 140.558 186.384 141.634 185.61C142.621 184.9 143.059 184.312 143.968 183.713C147.121 185.268 148.655 186.347 145.624 188.836L140.123 192.338ZM150.788 184.137C149.879 182.984 149.483 182.333 148.409 181.212L153.239 176.007L155.368 177.472L150.788 184.137ZM70.4549 122.542C72.3762 117.452 79.8484 107.348 83.2443 104.826L100.303 93.9599C100.354 93.9433 101.194 93.5585 101.506 93.4221C105.82 91.5398 117.645 91.3814 122.253 91.4954C128.233 91.6439 136.65 97.8509 141.76 101.342C143.9 102.801 147.499 106.075 148.813 108.29C150.019 110.326 153.748 113.364 156.226 118.995C156.59 119.825 156.728 120.153 157.073 120.953C157.148 121.118 157.353 121.611 157.429 121.776C157.893 122.829 157.546 122.101 157.976 122.993C161.405 130.185 163.157 139.365 161.426 147.456C159.595 156.021 154.738 164.99 149.234 171.392C145.052 176.249 137.008 181.679 130.687 183.561L118.984 186.451C116.979 186.615 116.614 186.684 114.604 186.696L105.969 185.971C104.547 185.777 102.415 185.9 101.554 185.667C100.017 185.252 98.3399 183.922 96.506 183.282C89.3478 180.783 77.4528 171.571 74.8021 163.885C73.921 161.334 72.0487 159.138 70.8949 156.405C68.8313 151.508 66.484 145.913 67.0352 140.444C67.2309 138.519 66.7344 137.901 66.8461 136.587C66.937 135.483 67.8567 129.017 68.8074 127.303C70.711 123.898 69.8041 124.257 70.4549 122.542ZM161.366 166.991C161.3 168.884 159.607 172.933 157.467 174.237L156.415 173.617C156.548 171.662 158.108 170.016 159.62 168.446C160.931 167.082 160.001 167.627 161.366 166.991ZM69.668 111.19C66.7824 115.705 61.9501 121.625 61.969 126.637C61.9732 127.557 61.8724 127.81 61.7598 128.808C61.2706 133.119 59.1211 136.326 60.226 142.851C61.0827 147.93 59.599 145.699 60.4535 149.443C61.4909 154.007 62.3345 160.211 64.1547 164.547C64.6508 165.729 65.568 167.101 65.7892 168.12C67.4579 175.824 65.0003 170.204 70.4155 179.48C73.2462 184.327 70.5736 180.989 74.9469 186.395C76.1194 187.847 77.0714 188.2 78.2021 189.676C81.4542 193.928 95.5372 201.752 100.52 202.94C107.236 204.536 114.367 205.915 121.198 204.53C123.18 204.129 123.636 204.347 125.217 204.27C131.367 203.975 142.237 198.838 147.382 195.332L157.32 187.046C160.881 183.533 170.154 166.406 170.2 160.092L170.416 139.252L168.919 134.307C168.872 134.136 168.764 133.658 168.708 133.487C168.674 133.37 168.63 133.194 168.587 133.078L162.793 117.083C161.717 114.634 160.949 112.581 158.938 110.13C157.813 108.762 156.701 108.188 155.774 106.713L153.699 102.912C152.254 100.801 138.522 91.7899 135.385 89.7939L128.227 86.8182C126.459 86.3282 128.727 87.3003 125.918 86.4498C123.903 85.8424 123.062 85.1716 121.326 85.2505L119.071 85.3449C118.251 85.3361 117.835 85.3342 116.935 85.3765C114.714 85.4838 114.715 85.9316 112.675 86.1022C112.548 86.1139 112.371 86.0981 112.243 86.1018L110.558 86.1201C109.718 86.117 109.044 86.0546 108.284 86.0003C106.403 85.8565 105.611 86.025 103.875 86.1919C99.7833 86.5743 91.2553 90.2976 87.7051 92.6177L80.1285 98.3493C78.9683 99.3471 77.1628 100.328 76.4163 101.128C74.5393 103.163 71.3053 108.633 69.668 111.19Z" fill="#E8E8E8"/>
<path fill-rule="evenodd" clip-rule="evenodd" d="M100.524 159.167C99.9308 155.963 100.571 156.232 100.526 154.737C100.52 154.542 97.5115 137.435 98.0046 131.333L98.4016 127.282C98.5664 124.276 99.0231 122.407 102.41 118.39C106.844 113.142 115.659 118.449 117.134 128.058C118.39 136.232 119.356 128.919 129.099 130.354C131 130.632 133.736 131.869 135.554 133.69C140.7 138.845 132.491 146.922 128.744 148.932C125.562 150.643 122.428 151.169 119.433 152.487L100.524 159.167ZM120.247 122.495C119.177 117.575 114.196 112.557 109.065 111.855C100.424 110.671 94.8499 117.614 93.7972 123.545C92.6116 130.207 92.7073 140.646 93.9925 147.306C95.1627 153.364 94.3831 162.672 101.053 163.505C101.186 163.521 101.357 163.51 101.489 163.51L102.327 163.313C108.674 161.804 104.075 163.669 109.438 161.503C109.508 161.472 111.452 160.658 111.452 160.658C111.588 160.61 111.767 160.562 111.899 160.518L125.448 155.867C131.49 153.203 139.6 149.146 141.639 141.582C142.406 138.733 141.633 133.921 140.49 132.267C139.933 131.458 137.117 128.309 136.412 127.854C131.754 124.841 123.302 126.298 121.477 126.318L120.247 122.495Z" fill="#E8E8E8"/>
<path fill-rule="evenodd" clip-rule="evenodd" d="M94.6128 74.2065C97.6025 70.1303 96.7085 69.0126 96.484 65.0746C96.1831 59.7761 93.2494 48.9527 91.85 43.1869C91.3549 41.141 91.428 40.3226 89.0515 39.0407C86.296 42.9235 87.4219 46.1832 88.0594 52.4066C88.2465 54.2328 88.3526 55.4345 88.4351 57.1663C88.5847 60.1116 89.5369 63.2633 90.0526 66.059C90.6935 69.523 90.6043 72.2182 94.6128 74.2065Z" fill="#E8E8E8"/>
<path fill-rule="evenodd" clip-rule="evenodd" d="M177.955 129.196C178.893 129.918 179.564 130.689 182.012 130.089L205.412 120.318C207.833 119.197 209.84 118.054 211.353 115.188C209.354 113.452 207.251 113.972 204.311 114.881L193.651 118.639C191.614 119.362 190.98 120.167 189.214 120.837C189.106 120.879 188.93 120.923 188.818 120.961L184.817 122.555C177.286 126.119 178.468 126.187 177.955 129.196Z" fill="#E8E8E8"/>
<path fill-rule="evenodd" clip-rule="evenodd" d="M27.5756 92.2238C29.971 95.0234 51.8043 112.734 54.9433 107.581C57.3628 103.609 39.8562 94.2908 36.9832 93.3942C32.4761 91.9873 30.3538 87.6271 27.5756 92.2238Z" fill="#E8E8E8"/>
<path fill-rule="evenodd" clip-rule="evenodd" d="M146.403 82.6629C149.078 84.1855 148.52 83.9046 153.122 79.441L167.541 57.2931C168.201 55.5493 168.059 54.7866 166.5 53.5258C161.249 56.3495 158.284 63.1425 154.917 67.9449C153.095 70.5388 146.873 75.4706 146.403 82.6629Z" fill="#E8E8E8"/>
<path fill-rule="evenodd" clip-rule="evenodd" d="M185.223 193.09C187.813 194.74 198.91 202.093 200.667 202.508C202.257 202.879 202.835 202.562 203.95 201.152C200.022 195.89 190.855 190.583 184.393 186.464C182.121 185.021 176.905 181.148 177.131 186.333C177.228 188.655 182.768 191.523 185.223 193.09Z" fill="#E8E8E8"/>
<path fill-rule="evenodd" clip-rule="evenodd" d="M89.3304 108.594C92.7981 110.396 93.3773 108.336 96.4788 106.705L107.37 102.325C115.195 100.098 114.536 103.689 117.291 99.754C115.517 97.0174 114.046 97.112 111.253 97.6155L101.575 99.6928C100.825 99.8893 100.608 99.9652 99.8787 100.12L93.0871 102.981L89.3304 108.594Z" fill="#E8E8E8"/>
<path fill-rule="evenodd" clip-rule="evenodd" d="M182.841 155.481C183.81 156.2 184.269 156.67 185.44 157.05C187.08 157.588 189.309 157.26 191.015 156.98C191.133 156.961 191.309 156.917 191.432 156.902L199.868 156.81C204.028 156.565 203.975 156.814 205.833 154.396C201.813 151.841 197.609 151.61 193.464 151.882C189.128 152.171 184.706 150.608 182.841 155.481Z" fill="#E8E8E8"/>
<path fill-rule="evenodd" clip-rule="evenodd" d="M58.6578 71.3317C57.7251 72.9805 57.9098 71.896 57.8733 73.5507C57.874 73.5586 58.6691 75.6051 58.7016 75.6541C60.1571 77.796 66.2953 86.6708 69.2253 85.1311C74.9598 82.1232 60.4198 71.0545 58.6578 71.3317Z" fill="#E8E8E8"/>
<path fill-rule="evenodd" clip-rule="evenodd" d="M167.898 96.5076C170.107 97.8329 170.181 97.9021 172.096 97.027C175.9 95.2915 180.492 91.0687 182.936 87.0585C181.216 86.2282 183.075 86.8298 181.822 86.6366L180.804 86.4779C179.285 86.5328 179.793 86.7943 178.343 87.5587L176.814 88.2344C172.538 90.0532 170.482 91.7929 167.898 96.5076Z" fill="#E8E8E8"/>
<path fill-rule="evenodd" clip-rule="evenodd" d="M81.1579 114.189C77.41 118.762 75.7377 121.942 74.9878 126.637C76.1078 128.214 75.4897 127.97 77.5185 128.948C79.5745 126.117 80.5448 124.705 81.4299 121.793C82.2474 119.103 83.9184 117.307 85.2036 114.354C82.9156 112.64 84.3215 114.023 81.1579 114.189Z" fill="#E8E8E8"/>
<path fill-rule="evenodd" clip-rule="evenodd" d="M122.517 68.8146C124.921 65.2917 125.758 62.816 126.96 59.1274L127.396 55.6288C127.4 54.6288 127.555 54.8824 127.129 53.8459C126.692 52.7862 126.975 53.2642 125.945 52.0549C123.94 55.1413 120.211 61.9721 120.184 65.6492C120.17 67.9456 120.844 68.016 122.517 68.8146Z" fill="#E8E8E8"/>
<path fill-rule="evenodd" clip-rule="evenodd" d="M113.335 148.375C114.999 149.518 115.732 149.799 117.41 149.254C120.404 148.288 125.316 146.251 127.034 143.527C124.997 142.417 121.797 143.146 119.771 144.039C117.047 145.244 115.086 145.584 113.335 148.375Z" fill="#E8E8E8"/>
</svg>
